<svg width="177" height="40" viewBox="0 0 164 40" fill="none" xmlns="http://www.w3.org/2000/svg"><path d="M148.04 16.7058H152.477V17.9587C153.644 16.8624 155.123 16.3143 156.915 16.3143C158.221 16.3143 159.378 16.5928 160.387 17.1495C161.396 17.6891 162.18 18.4635 162.736 19.4728C163.293 20.4647 163.572 21.6221 163.572 22.9447C163.572 24.2673 163.293 25.4158 162.736 26.4428C162.179 27.4521 161.396 28.2354 160.387 28.7921C159.395 29.3491 158.237 29.6273 156.915 29.6273C156.08 29.6273 155.28 29.4969 154.514 29.2358C153.765 28.9921 153.139 28.6528 152.634 28.2176V33.8973H148.04L148.04 16.7058ZM155.715 26.051C156.655 26.051 157.412 25.7724 157.986 25.2158C158.56 24.6587 158.847 23.9017 158.847 22.9447C158.847 21.9876 158.56 21.2391 157.986 20.6998C157.412 20.1428 156.655 19.8647 155.715 19.8647C155.019 19.8647 154.392 20.0473 153.835 20.4128C153.278 20.761 152.878 21.2395 152.635 21.8487V24.0676C152.878 24.6769 153.278 25.1639 153.835 25.5295C154.392 25.8776 155.019 26.051 155.715 26.051Z" fill="currentColor"></path><path d="M130.679 16.7058H135.117V17.9587C136.283 16.8624 137.762 16.3143 139.555 16.3143C140.86 16.3143 142.017 16.5928 143.026 17.1495C144.036 17.6891 144.819 18.4635 145.376 19.4728C145.933 20.4647 146.211 21.6221 146.211 22.9447C146.211 24.2673 145.933 25.4158 145.376 26.4428C144.819 27.4521 144.036 28.2354 143.026 28.7921C142.035 29.3491 140.877 29.6273 139.555 29.6273C138.719 29.6273 137.919 29.4969 137.153 29.2358C136.405 28.9921 135.778 28.6528 135.273 28.2176V33.8973H130.679L130.679 16.7058ZM138.354 26.051C139.294 26.051 140.051 25.7724 140.625 25.2158C141.199 24.6587 141.487 23.9017 141.487 22.9447C141.487 21.9876 141.199 21.2391 140.625 20.6998C140.051 20.1428 139.294 19.8647 138.354 19.8647C137.658 19.8647 137.032 20.0473 136.475 20.4128C135.918 20.761 135.517 21.2395 135.274 21.8487V24.0676C135.517 24.6769 135.918 25.1639 136.475 25.5295C137.032 25.8776 137.658 26.051 138.354 26.051Z" fill="currentColor"></path><path d="M117.021 10.9888H121.563L128.847 29.2358H124.122L122.66 25.4765H115.925L114.463 29.2358H109.712L117.021 10.9888ZM121.511 21.9265L119.292 15.7921L117.047 21.9265H121.511Z" fill="currentColor"></path><path d="M104.523 15.0348C103.827 15.0348 103.244 14.8085 102.774 14.3559C102.304 13.9033 102.069 13.3292 102.069 12.6329C102.069 11.9366 102.304 11.3885 102.774 10.9363C103.244 10.4663 103.827 10.2314 104.523 10.2314C105.219 10.2314 105.776 10.4663 106.246 10.9363C106.734 11.3889 106.977 11.9544 106.977 12.6329C106.977 13.3114 106.734 13.8859 106.246 14.3559C105.776 14.8085 105.202 15.0348 104.523 15.0348ZM102.226 16.7055H106.82V29.2359H102.226V16.7055Z" fill="#857CD9"></path><path d="M91.3224 29.627C89.7561 29.627 88.4857 29.253 87.5113 28.5044C86.5539 27.7385 86.0757 26.677 86.0757 25.3196C86.0757 23.9622 86.5368 22.8311 87.459 22.0826C88.3987 21.317 89.7387 20.9341 91.479 20.9341C92.1579 20.9341 92.8365 21.0122 93.5153 21.1689C94.1942 21.3081 94.7772 21.4996 95.2642 21.7433V21.4822C95.2642 20.1422 94.1679 19.4722 91.9753 19.4722C90.4435 19.4722 89.0428 19.7681 87.7724 20.3596V17.2011C88.3291 16.94 89.0602 16.7311 89.965 16.5744C90.8702 16.4004 91.8098 16.3133 92.7842 16.3133C95.1161 16.3133 96.8739 16.7833 98.0572 17.723C99.2579 18.6452 99.8587 19.9419 99.8587 21.6126V29.2352H95.5516V28.1648C95.0816 28.6174 94.4902 28.9741 93.7765 29.2352C93.0631 29.4963 92.2446 29.627 91.3224 29.627ZM92.6798 26.8078C93.2191 26.8078 93.7239 26.7033 94.1939 26.4944C94.6639 26.2681 95.0205 25.9811 95.2639 25.633V24.5367C94.5157 24.0319 93.6628 23.7796 92.7057 23.7796C92.0965 23.7796 91.6268 23.91 91.2961 24.1711C90.9653 24.4322 90.8002 24.8152 90.8002 25.3196C90.8002 25.7896 90.9565 26.1548 91.2702 26.4159C91.6009 26.677 92.0705 26.8078 92.6798 26.8078Z" fill="#857CD9"></path><path d="M77.0102 16.7055H81.448V18.2718C81.935 17.7148 82.6228 17.2885 83.5098 16.9925C84.3976 16.6792 85.3809 16.5225 86.4598 16.5225V20.0466C85.3113 20.0466 84.2931 20.2118 83.4054 20.5425C82.5354 20.8733 81.9346 21.3692 81.6039 22.0307V29.2355H77.0098L77.0102 16.7055Z" fill="#857CD9"></path><path d="M72.1998 15.0348C71.5035 15.0348 70.9205 14.8085 70.4505 14.3559C69.9805 13.9033 69.7457 13.3292 69.7457 12.6329C69.7457 11.9366 69.9805 11.3885 70.4505 10.9363C70.9205 10.4663 71.5035 10.2314 72.1998 10.2314C72.8961 10.2314 73.4528 10.4663 73.9228 10.9363C74.4102 11.3889 74.6535 11.9544 74.6535 12.6329C74.6535 13.3114 74.4102 13.8859 73.9228 14.3559C73.4528 14.8085 72.8783 15.0348 72.1998 15.0348ZM69.9028 16.7055H74.4968V29.2359H69.9028V16.7055Z" fill="#857CD9"></path><path d="M47.9746 10.9885H52.412L57.6854 22.2919L62.9846 10.9885H67.3965V29.2356H63.0894V20.073L58.7298 29.2356H56.6413L52.3079 20.073V29.2356H47.9746V10.9885Z" fill="#857CD9"></path><path d="M0 10.9375C0 4.89689 4.89689 0 10.9375 0H29.0625C35.1031 0 40 4.89689 40 10.9375V29.0625C40 35.1031 35.1031 40 29.0625 40H10.9375C4.89689 40 0 35.1031 0 29.0625V10.9375Z" fill="#857CD9"></path><path d="M26.1782 5.95736C25.3533 5.95736 23.7977 8.14889 23.0445 9.1842C21.367 8.99139 18.6111 8.99759 16.9555 9.1842C15.8555 7.67372 14.7117 5.95736 13.8437 5.95736C12.1593 5.95736 5.44096 18.5863 6.16581 30.7083C6.30274 32.9992 9.82239 34.495 10.3495 33.9806C10.5299 33.8028 10.6185 33.5313 10.5191 33.2518C9.44493 30.1966 10.1936 27.5054 10.6146 26.3965C12.2571 27.0237 13.376 27.5397 13.9822 26.7547C14.5437 26.0282 13.645 24.4586 12.8907 22.8726C15.2172 20.3118 18.4637 19.917 20 19.917C21.6167 19.917 24.5808 20.3337 27.1066 22.8707C26.3135 24.5939 25.4134 26.0367 26.0151 26.7547C26.6174 27.4733 27.7403 27.0237 29.3828 26.3965C29.8664 27.6727 30.5112 30.3159 29.4762 33.26C29.3789 33.5358 29.4655 33.8048 29.6452 33.9783C30.1681 34.4885 33.6926 33.0505 33.8335 30.7106C34.5636 18.5876 27.8547 5.95703 26.1778 5.95703L26.1782 5.95736ZM15.43 15.4572C14.6228 15.4572 13.9672 14.8019 13.9672 13.9944C13.9672 13.1869 14.6225 12.5297 15.43 12.5297C16.2375 12.5297 16.8944 13.1849 16.8944 13.9944C16.8944 14.8039 16.2391 15.4572 15.43 15.4572ZM19.9977 16.6686C19.2274 17.3461 17.7604 16.9572 17.7604 15.6728C17.7604 15.4366 17.9513 15.2431 18.1901 15.2431C18.429 15.2431 18.6199 15.4359 18.6199 15.6728C18.6199 16.283 19.5706 16.3131 19.5706 15.6728C19.5706 15.4366 19.7614 15.2431 20.0003 15.2431C20.2869 15.2431 20.43 15.5019 20.43 15.6728C20.43 16.3131 21.3807 16.2869 21.3807 15.6728C21.3807 15.4366 21.5716 15.2431 21.8085 15.2431C22.0454 15.2431 22.2382 15.4359 22.2382 15.6728C22.2382 16.9464 20.7781 17.3523 19.999 16.6686H19.998H19.9977ZM24.568 15.4572C23.7589 15.4572 23.1036 14.8019 23.1036 13.9944C23.1036 13.1869 23.7589 12.5297 24.568 12.5297C25.3772 12.5297 26.0308 13.1849 26.0308 13.9944C26.0308 14.8039 25.3755 15.4572 24.568 15.4572Z" fill="#FFFDF8"></path><path d="M16.6888 30.4442L19.5114 33.2668C19.7813 33.5368 20.2186 33.5368 20.4885 33.2668L23.3108 30.4446C23.5807 30.1746 23.5807 29.7374 23.3108 29.4674L20.4882 26.6448C20.2182 26.3749 19.781 26.3749 19.511 26.6448L16.6888 29.4671C16.4188 29.737 16.4188 30.1743 16.6888 30.4442Z" fill="#FFFDF8"></path></svg>